<svg width="1600" height="1000" viewBox="0 0 1600 1000" fill="none" xmlns="http://www.w3.org/2000/svg">
  <rect width="1600" height="1000" fill="#050816"/>
  <rect x="75" y="70" width="1450" height="860" rx="36" fill="#0B1122" stroke="#FFFFFF" stroke-opacity="0.12"/>
  <rect x="120" y="120" width="300" height="760" rx="28" fill="#0A1020" stroke="#FFFFFF" stroke-opacity="0.08"/>
  <rect x="160" y="155" width="220" height="60" rx="30" fill="#0A132A"/>
  <circle cx="200" cy="185" r="20" fill="url(#paint0_linear_1_2)"/>
  <text x="235" y="196" fill="white" font-size="28" font-family="Segoe UI, Arial, sans-serif" font-weight="700">Perplexity</text>
  <rect x="160" y="245" width="220" height="58" rx="18" fill="#0B1730" stroke="#67E8F9" stroke-opacity="0.5"/>
  <text x="185" y="282" fill="#D8F7FF" font-size="22" font-family="Segoe UI, Arial, sans-serif">Explore AI answers</text>

  <rect x="160" y="330" width="220" height="90" rx="18" fill="#0B1730" stroke="#FFFFFF" stroke-opacity="0.1"/>
  <text x="178" y="374" fill="#EAF5FF" font-size="22" font-family="Segoe UI, Arial, sans-serif">How to grow a SaaS?</text>

  <rect x="160" y="440" width="220" height="90" rx="18" fill="#0E1831" stroke="#FFFFFF" stroke-opacity="0.08"/>
  <text x="178" y="486" fill="#DDEBFD" font-size="22" font-family="Segoe UI, Arial, sans-serif">Compare React stacks</text>

  <rect x="160" y="550" width="220" height="90" rx="18" fill="#0E1831" stroke="#FFFFFF" stroke-opacity="0.08"/>
  <text x="178" y="596" fill="#DDEBFD" font-size="22" font-family="Segoe UI, Arial, sans-serif">Business strategy</text>

  <rect x="465" y="120" width="980" height="760" rx="28" fill="#0A1020" stroke="#FFFFFF" stroke-opacity="0.08"/>
  <rect x="465" y="120" width="980" height="94" rx="28" fill="#0B1122" stroke="#FFFFFF" stroke-opacity="0.08"/>
  <text x="515" y="177" fill="#8FF2FF" font-size="16" font-family="Segoe UI, Arial, sans-serif" letter-spacing="3">RESEARCH WORKSPACE</text>
  <text x="515" y="196" fill="white" font-size="28" font-family="Segoe UI, Arial, sans-serif" font-weight="700">How to grow a SaaS from 0 to 10k users</text>
  <rect x="1290" y="150" width="114" height="44" rx="22" fill="#0F1F35" stroke="#FFFFFF" stroke-opacity="0.1"/>
  <text x="1338" y="180" fill="#EAF3FF" font-size="18" font-family="Segoe UI, Arial, sans-serif" text-anchor="middle">Share</text>

  <rect x="515" y="255" width="885" height="448" rx="26" fill="#0E1831"/>
  <rect x="545" y="295" width="550" height="22" rx="11" fill="#FFFFFF" fill-opacity="0.08"/>
  <rect x="545" y="340" width="740" height="18" rx="9" fill="#FFFFFF" fill-opacity="0.08"/>
  <rect x="545" y="378" width="620" height="18" rx="9" fill="#FFFFFF" fill-opacity="0.08"/>
  <rect x="545" y="430" width="280" height="140" rx="20" fill="#0A1325" stroke="#FFFFFF" stroke-opacity="0.08"/>
  <text x="570" y="475" fill="#DFF6FF" font-size="20" font-family="Segoe UI, Arial, sans-serif">Start by validating</text>
  <text x="570" y="510" fill="#DFF6FF" font-size="20" font-family="Segoe UI, Arial, sans-serif">market demand and</text>
  <text x="570" y="545" fill="#DFF6FF" font-size="20" font-family="Segoe UI, Arial, sans-serif">customer signals.</text>

  <rect x="855" y="430" width="515" height="160" rx="18" fill="#0A1325" stroke="#FFFFFF" stroke-opacity="0.06"/>
  <text x="885" y="485" fill="#8FF2FF" font-size="16" font-family="Segoe UI, Arial, sans-serif" letter-spacing="3">ANSWER</text>
  <text x="885" y="520" fill="#EFFBFF" font-size="24" font-family="Segoe UI, Arial, sans-serif">Validate the market, define the product, and</text>
  <text x="885" y="555" fill="#EFFBFF" font-size="24" font-family="Segoe UI, Arial, sans-serif">focus on one clear customer problem.</text>

  <rect x="515" y="750" width="785" height="86" rx="22" fill="#0D1425" stroke="#FFFFFF" stroke-opacity="0.08"/>
  <text x="545" y="802" fill="#B7C7DF" font-size="26" font-family="Segoe UI, Arial, sans-serif">Ask anything...</text>
  <rect x="1240" y="760" width="120" height="58" rx="18" fill="url(#paint1_linear_1_2)"/>
  <text x="1295" y="798" fill="#061520" font-size="20" font-family="Segoe UI, Arial, sans-serif" font-weight="700" text-anchor="middle">Send</text>

  <defs>
    <linearGradient id="paint0_linear_1_2" x1="180" y1="155" x2="400" y2="240" gradientUnits="userSpaceOnUse">
      <stop stop-color="#7DD3FC"/>
      <stop offset="1" stop-color="#4F46E5"/>
    </linearGradient>
    <linearGradient id="paint1_linear_1_2" x1="1240" y1="760" x2="1360" y2="818" gradientUnits="userSpaceOnUse">
      <stop stop-color="#67E8F9"/>
      <stop offset="1" stop-color="#38BDF8"/>
    </linearGradient>
  </defs>
</svg>
